<?xml version="1.0" encoding="UTF-8"?>
<!-- Created with Inkscape (http://www.inkscape.org/) -->
<svg width="670" height="720" version="1.1" viewBox="0 0 177.27 190.5" xmlns="http://www.w3.org/2000/svg">
 <defs>
  <filter id="filter2060" x="-.18661" y="-.17401" width="1.451" height="1.4205" color-interpolation-filters="sRGB">
   <feColorMatrix result="result1" values="0 0 0 0 0 0 0 0 0 0 0 0 0 0 0 0.21 0.72 0.07 0 0 "/>
   <feColorMatrix result="result9" values="1 0 0 0 0 0 1 0 0 0 0 0 1 0 0 0 0 0 2 0 "/>
   <feComposite in="SourceGraphic" in2="result9" operator="in" result="result4"/>
   <feFlood flood-color="rgb(0,0,0)" result="result2"/>
   <feComposite in2="result9" operator="in" result="result10"/>
   <feComposite in2="result4" operator="atop"/>
   <feGaussianBlur result="result8" stdDeviation="3"/>
   <feOffset dx="3" dy="3" in="result8" result="result3"/>
   <feFlood flood-color="rgb(219,173,62)" result="result5"/>
   <feMerge result="result6">
    <feMergeNode in="result5"/>
    <feMergeNode in="result3"/>
    <feMergeNode in="result4"/>
   </feMerge>
   <feComposite in2="SourceGraphic" operator="in" result="fbSourceGraphic"/>
   <feColorMatrix in="fbSourceGraphic" result="fbSourceGraphicAlpha" values="0 0 0 -1 0 0 0 0 -1 0 0 0 0 -1 0 0 0 0 1 0"/>
   <feComposite in="fbSourceGraphic" in2="fbSourceGraphic" k2="1" operator="arithmetic" result="composite1"/>
   <feColorMatrix in="composite1" result="colormatrix1" type="saturate" values="1"/>
   <feFlood flood-color="rgb(0,134,129)" result="flood1"/>
   <feBlend in="flood1" in2="colormatrix1" mode="multiply" result="blend1"/>
   <feBlend in2="blend1" mode="screen" result="blend2"/>
   <feColorMatrix in="blend2" result="colormatrix2" type="saturate" values="1"/>
   <feComposite in="colormatrix2" in2="fbSourceGraphic" k2="1" operator="in" result="composite2"/>
  </filter>
 </defs>
 <g transform="translate(19.264 -15.968)">
  <g transform="matrix(4.572 0 0 4.572 -86.241 -219.67)" filter="url(#filter2060)">
   <g transform="translate(-70.851 -76.214)" stroke-width=".042333">
    <path d="m105.19 133.52c0-0.10477 8e-3 -0.14764 0.0183-0.0953 0.0101 0.0524 0.0101 0.13811 0 0.1905-0.0101 0.0524-0.0183 0.01-0.0183-0.0952z" fill="#e3e3e3"/>
    <path d="m110.27 160.21c2e-3 -0.0493 0.0121-0.0593 0.0256-0.0256 0.0122 0.0306 0.0107 0.0671-3e-3 0.0811-0.0141 0.0141-0.0241-0.0109-0.0222-0.0556z" fill="#e1e1e1"/>
    <path d="m106.21 158.61c3.4e-4 -0.11642 9e-3 -0.15902 0.0183-0.0947 0.01 0.0643 9e-3 0.1596-5.7e-4 0.21167-0.0101 0.0521-0.018-5.8e-4 -0.0177-0.117z" fill="#e0e0e0"/>
    <path d="m106.03 151.02c2e-3 -0.0493 0.0121-0.0593 0.0256-0.0256 0.0122 0.0306 0.0107 0.0671-3e-3 0.0811-0.0141 0.0141-0.0241-0.0109-0.0222-0.0556z" fill="#d9d9d9"/>
    <path d="m106.21 158.25c0-0.10478 8e-3 -0.14764 0.0183-0.0952 0.0101 0.0524 0.0101 0.13811 0 0.1905-0.0101 0.0524-0.0183 0.01-0.0183-0.0952z" fill="#d3d3d3"/>
    <path d="m106.12 153.84c0-0.0582 0.01-0.082 0.0213-0.0529 0.0118 0.0291 0.0118 0.0767 0 0.10584-0.0117 0.0291-0.0213 5e-3 -0.0213-0.0529z" fill="#d0d0d0"/>
    <path d="m105.86 145.94c2e-3 -0.0493 0.0121-0.0593 0.0256-0.0256 0.0122 0.0306 0.0107 0.0671-3e-3 0.0811-0.0141 0.0141-0.0241-0.0109-0.0222-0.0556z" fill="#c8c8c8"/>
    <path d="m106.2 157.86c0-0.0582 0.01-0.082 0.0213-0.0529 0.0118 0.0291 0.0118 0.0767 0 0.10583-0.0117 0.0291-0.0213 5e-3 -0.0213-0.0529z" fill="#c3c3c3"/>
    <path d="m107 137.15c0-9e-3 0.0333-0.0421 0.0741-0.0741 0.0671-0.0527 0.0686-0.0512 0.016 0.016-0.0553 0.0705-0.0901 0.093-0.0901 0.0581z" fill="#bcbcbc"/>
    <path d="m106.2 157.61c0-0.0582 0.01-0.082 0.0213-0.0529 0.0118 0.0291 0.0118 0.0767 0 0.10583-0.0117 0.0291-0.0213 5e-3 -0.0213-0.0529z" fill="#b5b5b5"/>
    <path d="m99.9 157.86c0-0.0815 0.0087-0.11483 0.01936-0.0741 0.01065 0.0408 0.01065 0.10743 0 0.14817-0.01065 0.0407-0.01936 7e-3 -0.01936-0.0741zm6.3012-0.4057c2e-3 -0.0493 0.0121-0.0593 0.0256-0.0256 0.0122 0.0306 0.0107 0.0671-3e-3 0.0811-0.0141 0.0141-0.0241-0.0109-0.0222-0.0556z" fill="#b2b2b2"/>
    <path d="m107.08 135.52c-0.0526-0.0671-0.0511-0.0686 0.016-0.016 0.0407 0.0319 0.0741 0.0653 0.0741 0.0741 0 0.0348-0.0348 0.0124-0.0901-0.0581z" fill="#adadad"/>
    <path d="m88.418 133.34c0-9e-3 0.03334-0.0421 0.07408-0.0741 0.06714-0.0527 0.06864-0.0512 0.01598 0.016-0.0553 0.0705-0.09007 0.093-0.09007 0.0581z" fill="#a5a5a5"/>
    <path d="m106.21 157.29c8.6e-4 -0.0699 0.0104-0.0933 0.0211-0.0521s0.01 0.0983-2e-3 0.127c-0.0116 0.0287-0.0204-5e-3 -0.0195-0.0749z" fill="#9e9e9e"/>
    <path d="m106.2 157.12c2e-3 -0.0493 0.0121-0.0593 0.0256-0.0256 0.0122 0.0306 0.0107 0.0671-3e-3 0.0811-0.0141 0.0141-0.0241-0.0109-0.0222-0.0556z" fill="#9c9c9c"/>
    <path d="m105.78 142.92c0-0.0582 0.01-0.082 0.0214-0.0529 0.0117 0.0291 0.0117 0.0767 0 0.10584-0.0118 0.0291-0.0214 5e-3 -0.0214-0.0529z" fill="#949494"/>
    <path d="m106.12 153.31c2e-3 -0.0493 0.0121-0.0593 0.0256-0.0256 0.0122 0.0306 0.0107 0.0671-3e-3 0.0811-0.0141 0.0141-0.0241-0.0109-0.0222-0.0556z" fill="#929292"/>
    <path d="m106.2 141.72c0-9e-3 0.0333-0.0421 0.0741-0.0741 0.0671-0.0527 0.0686-0.0512 0.016 0.016-0.0553 0.0705-0.0901 0.093-0.0901 0.0581z" fill="#8d8d8d"/>
    <path d="m106.2 156.91c2e-3 -0.0493 0.0121-0.0593 0.0256-0.0256 0.0122 0.0306 0.0107 0.0671-3e-3 0.0811-0.0141 0.0141-0.0241-0.0109-0.0222-0.0556z" fill="#888"/>
    <path d="m106.2 156.78c2e-3 -0.0493 0.0121-0.0593 0.0256-0.0256 0.0122 0.0306 0.0107 0.0671-3e-3 0.0811-0.0141 0.0141-0.0241-0.0109-0.0222-0.0556z" fill="#828282"/>
    <path d="m106.16 154.75c2e-3 -0.0493 0.0121-0.0593 0.0256-0.0256 0.0122 0.0306 0.0107 0.0671-3e-3 0.0811-0.0141 0.0141-0.0241-0.0109-0.0222-0.0556z" fill="#7f7f7f"/>
    <path d="m108.48 160.52c0-9e-3 0.0333-0.0421 0.0741-0.0741 0.0671-0.0527 0.0686-0.0512 0.016 0.016-0.0553 0.0705-0.0901 0.093-0.0901 0.0581z" fill="#787878"/>
    <path d="m106.23 135.14c0.0306-0.0122 0.0671-0.0107 0.0811 3e-3 0.0141 0.0141-0.0109 0.0241-0.0556 0.0222-0.0493-2e-3 -0.0594-0.0121-0.0256-0.0256z" fill="#747474"/>
    <path d="m101.21 163.09c8.7e-4 -0.0699 0.0104-0.0933 0.0211-0.0521s0.01 0.0983-2e-3 0.127c-0.0116 0.0287-0.0204-5e-3 -0.0195-0.0749z" fill="#6d6d6d"/>
    <path d="m106.21 156.51c0-0.0815 9e-3 -0.11483 0.0194-0.0741 0.0106 0.0407 0.0106 0.10742 0 0.14816-0.0106 0.0408-0.0194 7e-3 -0.0194-0.0741zm-0.0911-3.5384c2e-3 -0.0493 0.0121-0.0593 0.0256-0.0256 0.0122 0.0306 0.0107 0.0671-3e-3 0.0811-0.0141 0.0141-0.0241-0.0109-0.0222-0.0556z" fill="#676767"/>
    <path d="m106.03 150.22c2e-3 -0.0493 0.0121-0.0593 0.0256-0.0256 0.0122 0.0306 0.0107 0.0671-3e-3 0.0811-0.0141 0.0141-0.0241-0.0109-0.0222-0.0556z" fill="#5d5d5d"/>
    <path d="m104.23 150.96c0-4.2958 5e-3 -6.0531 0.011-3.9052 6e-3 2.1479 6e-3 5.6626 0 7.8105-6e-3 2.1479-0.011 0.39053-0.011-3.9052z" fill="#575757"/>
    <path d="m121.05 133.03c-0.0526-0.0671-0.0512-0.0686 0.016-0.016 0.0705 0.0553 0.0929 0.0901 0.0581 0.0901-9e-3 0-0.0421-0.0333-0.0741-0.0741z" fill="#565656"/>
    <path d="m105.86 145.22c2e-3 -0.0493 0.0121-0.0593 0.0256-0.0256 0.0122 0.0306 0.0107 0.0671-3e-3 0.0811-0.0141 0.0141-0.0241-0.0109-0.0222-0.0556z" fill="#525252"/>
    <path d="m105.95 147.64c2e-3 -0.0493 0.0121-0.0593 0.0256-0.0256 0.0122 0.0306 0.0107 0.0671-3e-3 0.0811-0.0141 0.0141-0.0241-0.0109-0.0222-0.0556z" fill="#4d4d4d"/>
    <path d="m106.25 159.9c0-0.12806 8e-3 -0.18045 0.0176-0.11642 0.01 0.064 0.01 0.16881 0 0.23283-0.01 0.064-0.0176 0.0117-0.0176-0.11641z" fill="#494949"/>
    <path d="m98.031 160c2e-3 -0.0493 0.01206-0.0593 0.02558-0.0256 0.01223 0.0306 0.01072 0.0671-0.0033 0.0811-0.01407 0.0141-0.02407-0.0109-0.02223-0.0556z" fill="#474747"/>
    <path d="m106.16 154.28c2e-3 -0.0493 0.0121-0.0593 0.0256-0.0256 0.0122 0.0306 0.0107 0.0671-3e-3 0.0811-0.0141 0.0141-0.0241-0.0109-0.0222-0.0556zm-0.16933-5.4187c2e-3 -0.0493 0.0121-0.0593 0.0256-0.0256 0.0122 0.0306 0.0107 0.0671-3e-3 0.0811-0.0141 0.0141-0.0241-0.0109-0.0222-0.0556z" fill="#444"/>
    <path d="m104.61 132.23c-2e-5 -0.62865 6e-3 -0.89172 0.0131-0.58461 7e-3 0.30711 7e-3 0.82146 4e-5 1.143-7e-3 0.32154-0.0131 0.0703-0.0131-0.55839z" fill="#3f3f3f"/>
    <path d="m106.25 159.28c3.3e-4 -0.11641 9e-3 -0.15901 0.0183-0.0947 0.01 0.0643 9e-3 0.1596-5.8e-4 0.21166-0.01 0.0521-0.018-5.8e-4 -0.0177-0.117zm-1.6516-25.76c0-0.10477 8e-3 -0.14764 0.0183-0.0953 0.0101 0.0524 0.0101 0.13811 0 0.1905-0.0101 0.0524-0.0183 0.01-0.0183-0.0952zm-8e-3 -2.48c2e-3 -0.0493 0.0121-0.0593 0.0256-0.0256 0.0122 0.0306 0.0107 0.0671-3e-3 0.0811-0.0141 0.0141-0.0241-0.0109-0.0222-0.0556z" fill="#3d3d3d"/>
    <path d="m124.19 139.89c2e-3 -0.0493 0.0121-0.0593 0.0256-0.0256 0.0122 0.0306 0.0107 0.0671-3e-3 0.0811-0.0141 0.0141-0.0241-0.0109-0.0222-0.0556z" fill="#3c3c3c"/>
    <path d="m121.26 133.24c-0.0527-0.0671-0.0512-0.0686 0.016-0.016 0.0407 0.032 0.0741 0.0653 0.0741 0.0741 0 0.0348-0.0348 0.0124-0.0901-0.0581z" fill="#383838"/>
    <path d="m106.2 155.89c2e-3 -0.0493 0.0121-0.0593 0.0256-0.0256 0.0122 0.0306 0.0107 0.0671-3e-3 0.0811-0.0141 0.0141-0.0241-0.0109-0.0222-0.0556z" fill="#363636"/>
    <path d="m105.24 132.17c0-0.66357 6e-3 -0.93503 0.013-0.60325 7e-3 0.33179 7e-3 0.87472 0 1.2065-7e-3 0.33179-0.013 0.0603-0.013-0.60325z" fill="#333"/>
    <path d="m98.986 169.08c-0.97606-1.2009-1.128-1.3998-1.1017-1.4424 0.01708-0.0276 0.01085-0.0363-0.01469-0.0206-0.05235 0.0324-0.25925-0.21856-1.2336-1.496-0.39958-0.52388-0.74745-0.97794-0.77305-1.009-0.25292-0.30717-1.1737-1.633-1.1551-1.6631 0.01335-0.0216 0.0054-0.0341-0.01765-0.0277-0.06021 0.0167-0.39469-0.47196-0.3607-0.52697 0.01563-0.0253 0.0096-0.0344-0.01333-0.0202-0.0706 0.0436-1.4868-2.1299-2.4356-3.738-0.86914-1.4732-1.9113-3.4879-2.5291-4.8895-0.14368-0.32597-0.31628-0.71649-0.38354-0.86784-0.38381-0.86358-1.1305-2.8802-1.497-4.0428-0.90311-2.8653-1.6338-6.3932-1.8046-8.7134-0.10304-1.3992 0.14762-2.9156 0.69052-4.1771 0.80438-1.8691 2.1851-3.4504 4.1744-4.7807 0.87927-0.588 2.2797-1.3443 2.4022-1.2973 0.03354 0.0129 0.05085 7e-3 0.03846-0.013-0.07534-0.12191 3.2753-1.3337 3.4754-1.2569 0.03346 0.0128 0.05023 6e-3 0.03727-0.0148-0.04373-0.0708 2.0099-0.53375 3.1942-0.72014 4.4095-0.69396 9.1143-0.49091 13.248 0.57176 1.1556 0.29706 2.5846 0.77483 3.431 1.1471 0.12806 0.0563 0.32809 0.14404 0.4445 0.19492 0.85773 0.37486 2.3724 1.2295 2.3224 1.3104-0.0169 0.0274-9e-3 0.0336 0.0208 0.0154 0.027-0.0167 0.11095 0.012 0.18646 0.0639 0.55322 0.37987 0.78742 0.56394 0.76457 0.6009-0.0146 0.0236-7e-3 0.0311 0.0159 0.0167 0.0233-0.0144 0.17392 0.0815 0.33462 0.2131 0.46185 0.37829 1.4611 1.3776 1.4379 1.438-0.0115 0.0299-1.3e-4 0.0498 0.0252 0.0443 0.0655-0.0143 0.54389 0.57119 0.52106 0.6377-0.0104 0.0303-2e-3 0.0447 0.0187 0.0319 0.0546-0.0337 0.46991 0.62587 0.78242 1.2427 0.93908 1.8536 1.1617 3.6292 0.7834 6.248-0.58297 4.0356-1.6578 7.8386-3.2544 11.515-0.73196 1.6855-1.7419 3.689-2.5818 5.1216-0.67095 1.1445-0.86657 1.4541-0.90396 1.431-0.0231-0.0143-0.0294-6e-3 -0.0141 0.0192 0.0449 0.0727-1.661 2.7103-1.7169 2.6545-0.0107-0.0107-0.0195 7e-3 -0.0195 0.0388 0 0.0741-1.3801 2.0103-1.8443 2.5875-0.0187 0.0233-0.15845 0.20958-0.31049 0.41399-0.16404 0.22055-0.29547 0.35988-0.32326 0.34271-0.0282-0.0174-0.0349-0.01-0.0168 0.0197 0.0386 0.0625-0.18137 0.3535-0.23989 0.31734-0.0251-0.0155-0.0316-7e-3 -0.0151 0.0198 0.0385 0.0623-0.72934 1.0332-0.7883 0.99681-0.0279-0.0173-0.0326-8e-3 -0.0123 0.0252 0.0198 0.032-3e-3 0.0893-0.0576 0.14412-0.0498 0.05-0.23615 0.27742-0.41421 0.50529l-0.32374 0.4143-0.15887-0.48406c-0.25116-0.7652-0.63473-1.5491-1.1422-2.3342-0.4482-0.69346-0.61689-1.1526-0.66102-1.7992-0.0337-0.49328 0.0449-0.76808 0.4282-1.4979 0.53694-1.0224 0.65866-1.4605 0.65866-2.3712 0-0.80582-0.14463-1.2795-0.44789-1.467-0.16785-0.10374-0.29908-0.10434-0.46671-2e-3 -0.17945 0.10943-0.29889 0.31731-0.38179 0.66453-0.19444 0.81439-0.51887 1.2363-1.1048 1.4367-0.42633 0.14583-1.0387 0.0628-1.3273-0.18002-0.28513-0.23992-0.28499-0.23898-0.31306-2.1534-0.0506-3.45-0.10359-5.4124-0.29952-11.088-0.14223-4.1197-0.14939-4.8833-0.0486-5.1724 0.11545-0.33094 0.31589-0.5588 0.7194-0.81781 0.51105-0.32803 0.70684-0.66172 0.64404-1.0976-0.0417-0.2893-0.27934-0.97199-0.55059-1.5816-0.35854-0.80572-0.34381-0.9132 0.20256-1.4788 0.39738-0.41136 0.51238-0.63698 0.51308-1.0066 6e-4 -0.31891-0.089-0.52464-0.33539-0.77005-0.2406-0.23965-0.49656-0.34473-0.8463-0.34745-0.58668-5e-3 -0.92362 0.31601-1.164 1.1074-0.0512 0.16853-0.10922 0.30641-0.12897 0.30641-0.0197 0-0.0609-0.0524-0.0914-0.11642-0.0434-0.091-0.0896-0.11925-0.21164-0.12941-0.13669-0.0114-0.16431 3e-3 -0.22195 0.11431-0.0793 0.15333-0.0857 0.35952-0.0129 0.41683 0.10378 0.0817 0.27734 0.0981 0.34316 0.0322 0.0672-0.0672 0.15401-0.0851 0.15461-0.0318 2.1e-4 0.0175-0.0326 0.16034-0.0729 0.3175-0.0537 0.20948-0.0921 0.28575-0.14393 0.28575-0.0392 0-0.082-0.045-0.096-0.10078-0.0241-0.0961-0.12904-0.15137-0.28972-0.15264-0.10198-8.1e-4 -0.20951 0.22833-0.19399 0.41337 0.0113 0.13415 0.0314 0.16012 0.15094 0.19419 0.1084 0.0309 0.15445 0.0244 0.215-0.0304 0.0914-0.0827 0.17607-0.0908 0.17657-0.0168 2.1e-4 0.0291-0.0326 0.1815-0.0729 0.33866-0.0773 0.30176-0.15414 0.36317-0.2241 0.17916-0.0442-0.11619-0.22227-0.20542-0.33719-0.16895-0.17467 0.0554-0.25004 0.45136-0.10598 0.5567 0.10571 0.0773 0.30363 0.0729 0.34875-8e-3 0.0206-0.0368 0.0652-0.0542 0.10248-0.0399 0.0589 0.0226 0.0571 0.0607-0.0172 0.35655-0.0718 0.28606-0.0942 0.32835-0.16387 0.31013-0.0444-0.0116-0.0807-0.0563-0.0807-0.0993 0-0.0923-0.1204-0.16589-0.27129-0.16589-0.13074 0-0.23671 0.17835-0.23671 0.39837 0 0.13738 0.0131 0.1525 0.17446 0.20084 0.15311 0.0459 0.18089 0.0435 0.22692-0.0195 0.0713-0.0975 0.20416-0.0957 0.17482 2e-3 -0.0122 0.0407-0.0533 0.20043-0.0914 0.35485-0.0592 0.23989-0.081 0.27769-0.15001 0.25964-0.0444-0.0116-0.0808-0.0563-0.0808-0.0994 0-0.0988-0.13901-0.17509-0.28784-0.15791-0.15372 0.0177-0.28759 0.27658-0.23094 0.44653 0.0514 0.1543 0.27239 0.22504 0.3849 0.12323 0.0813-0.0736 0.21855-0.0947 0.21855-0.0337 0 0.0198-0.0181 0.0913-0.0403 0.15875-0.0221 0.0675-0.061 0.2037-0.0863 0.30265-0.0513 0.20045-0.15291 0.2407-0.19403 0.0769-0.0277-0.11059-0.22706-0.2079-0.33834-0.1652-0.0838 0.0322-0.18774 0.23646-0.18774 0.36896 0 0.0577 0.0299 0.13485 0.0665 0.17143 0.0833 0.0833 0.28756 0.0865 0.35472 6e-3 0.0972-0.11708 0.17076-0.0307 0.14347 0.16843-0.0205 0.14957-5e-3 0.21831 0.0816 0.36646 0.0588 0.1003 0.14654 0.21827 0.19503 0.26216 0.0485 0.0439 0.12667 0.18269 0.17372 0.30845 0.0848 0.22653 0.0856 0.30431 0.0856 8.3312 0 5.6107-0.0138 8.1391-0.0449 8.2217-0.16915 0.44865-0.82622 0.70223-1.4233 0.54927-0.8181-0.20959-1.3266-0.95961-1.4933-2.2026-0.12322-0.91864-0.65912-1.2853-1.0753-0.73575-0.20342 0.26862-0.2603 0.54294-0.25673 1.2383 0.0044 0.85003 0.07235 1.1166 0.68562 2.6882 0.42943 1.1004 0.55881 1.5977 0.58933 2.2648 0.0446 0.9748-0.16604 1.6649-0.86236 2.8256-0.68648 1.1443-1.0569 2.26-1.0835 3.2633-0.0053 0.20134-0.01922 0.36519-0.03086 0.36411-0.01164-1e-3 -0.1139-0.11606-0.22724-0.2555zm0.28016-3.6852c0.04075-0.0482 0.07408-0.13332 0.07408-0.18926 0-0.0863-0.3369-0.63735-0.49412-0.80813-0.08599-0.0934-1.558-2.301-1.858-2.7865-0.78272-1.2666-1.5357-2.541-1.9752-3.3428-0.26798-0.48895-0.53622-0.94138-0.5961-1.0054-0.14474-0.15477-0.33038-0.15678-0.44987-5e-3 -0.10999 0.13983-0.11029 0.22864-0.0015 0.44193 0.04745 0.093 0.07308 0.19044 0.05696 0.21652-0.01701 0.0275-0.01031 0.0357 0.01598 0.0194 0.0268-0.0166 0.12733 0.12334 0.24626 0.34271 0.38596 0.71194 0.95326 1.6784 2.0263 3.4521 0.04523 0.0748 0.41476 0.64077 0.82116 1.2578 0.40641 0.61701 0.73928 1.1448 0.73973 1.1729 4.44e-4 0.0281 0.0129 0.0436 0.02767 0.0344 0.01478-9e-3 0.11161 0.10916 0.2152 0.26286s0.27855 0.40238 0.38883 0.55262c0.11027 0.15024 0.18829 0.29291 0.17338 0.31705-0.01516 0.0245-0.0067 0.0313 0.01915 0.0153 0.02545-0.0157 0.06173-3e-3 0.08062 0.029 0.10136 0.16983 0.35486 0.18143 0.48944 0.0224zm12.135-0.79573c0.0413-0.0221 0.17567-0.19332 0.29851-0.38044 0.12361-0.18827 0.24296-0.32808 0.26726-0.31306 0.0241 0.0149 0.0314 7e-3 0.0161-0.0178-0.0153-0.0247 0.15908-0.32769 0.38746-0.67329 0.70115-1.061 1.0242-1.6026 1.0242-1.7168 0-0.25203-0.31893-0.39497-0.50518-0.22642-0.0449 0.0406-0.21936 0.29592-0.38775 0.56736s-0.58882 0.91495-0.93428 1.43c-0.68523 1.0216-0.72456 1.1193-0.51658 1.2829 0.12118 0.0953 0.23261 0.11044 0.35019 0.0475zm-11.365-1.1122c0.11336-0.16184 0.094-0.24905-0.19497-0.87795-0.06912-0.15045-0.35336-0.79815-0.63162-1.4393-0.65515-1.5096-0.61459-1.434-0.78612-1.4661-0.17253-0.0324-0.33998 0.0629-0.37819 0.21514-0.01913 0.0762 0.08256 0.35743 0.37872 1.0472 0.80455 1.8738 1.1065 2.5331 1.1821 2.5811 0.02833 0.018 0.12187 0.033 0.20787 0.0334 0.11405 4.7e-4 0.17418-0.0248 0.22224-0.0934zm-2.1123-4.8358c0.05715-0.0572 0.10391-0.14287 0.10391-0.19048 0-0.0476-0.12546-0.39615-0.2788-0.77451-1.6069-3.9649-3.3313-8.9674-4.6734-13.557-0.14297-0.48895-0.29997-1.0319-0.34888-1.2065-0.1066-0.38057-0.20621-0.508-0.39707-0.508-0.14272 0-0.31319 0.15523-0.31319 0.28519 0 0.0539 0.30409 1.1302 0.71476 2.53 0.20124 0.6859 0.66318 2.1705 1.0044 3.228 0.1747 0.5414 0.30397 1.0081 0.28726 1.0372-0.01671 0.029-0.01409 0.038 0.0058 0.0199 0.01991-0.0181 0.17715 0.38193 0.34941 0.889 1.1779 3.4673 2.9199 8.0668 3.1269 8.2562 0.13554 0.12402 0.2893 0.12084 0.4188-9e-3zm13.978 9e-3c0.1383-0.14908 1.0169-2.0232 1.6896-3.6041 0.59566-1.3998 1.0413-2.5473 1.7282-4.4498 0.49041-1.3583 0.47837-1.3116 0.37439-1.4514-0.11959-0.16081-0.4026-0.18545-0.49563-0.0431-0.0351 0.0537-0.21465 0.52619-0.39903 1.0501-0.97659 2.7748-2.1159 5.5262-3.2417 7.8286-0.10732 0.2195-0.19514 0.43468-0.19514 0.47817 0 0.12118 0.19025 0.2869 0.32936 0.2869 0.0716 0 0.15783-0.0391 0.20991-0.0952zm3.7095-0.98209c0.0528-0.057 0.44107-0.7952 0.86274-1.6404 0.83489-1.6735 0.92047-1.8531 1.6396-3.4418 1.0109-2.2331 2.9566-7.1115 3.0175-7.5655 0.0345-0.25696-0.1817-0.42545-0.41946-0.32697-0.13042 0.054-0.10794 3e-3 -0.71509 1.6272-0.52173 1.3958-1.7186 4.3468-2.0948 5.1647-0.0321 0.0699-0.18041 0.40323-0.32953 0.74083-0.51888 1.1748-1.0619 2.316-1.771 3.7218-0.40917 0.81125-0.71351 1.4645-0.71351 1.5315 0 0.13812 0.17157 0.29234 0.32523 0.29234 0.0562 0 0.14538-0.0466 0.19823-0.10367zm-12.786-0.41367 0.0856-0.11517-0.15914-1.1337c-0.0875-0.62351-0.22302-1.5881-0.30109-2.1435-0.1565-1.1134-0.17773-1.1704-0.43609-1.1704-0.21147 0-0.30369 0.0995-0.30369 0.32784 0 0.10325 0.12383 1.0606 0.27517 2.1275 0.15134 1.0669 0.27517 1.9614 0.27517 1.9878 0 0.0264 0.0479 0.096 0.10653 0.15457 0.14074 0.14074 0.33811 0.12562 0.45753-0.0351zm7.4117-1.2712c0.0338-0.0524 0.16025-0.4572 0.28108-0.89959 0.35148-1.2868 0.41973-1.5593 0.42063-1.6797 9.9e-4 -0.13207-0.17142-0.28883-0.31767-0.28883-0.21962 0-0.25959 0.0911-0.61305 1.397-0.1859 0.68686-0.3381 1.2762-0.33822 1.3096-1.2e-4 0.0334 0.0412 0.10486 0.0918 0.15875 0.12697 0.13514 0.38908 0.13665 0.4754 3e-3zm-2.5563-0.32026c0.0858-0.0695 0.11869-0.23054 0.34348-1.6828 0.38405-2.481 0.88335-5.9184 0.88335-6.0814 0-0.11516-0.19009-0.28698-0.3175-0.28698-0.23224 0-0.29224 0.13153-0.396 0.86805-0.16113 1.1437-0.62794 4.2925-0.83029 5.6005-0.10553 0.68219-0.19188 1.2966-0.19188 1.3652 0 0.25469 0.30294 0.38412 0.50884 0.21739zm-8.0998-1.7509c0.05389-0.0506 0.09798-0.12811 0.09798-0.17218 0-0.0441-0.14131-0.54082-0.31402-1.1039-0.3722-1.2134-0.71848-2.3916-1.1033-3.7536-0.15448-0.54679-0.31131-1.0278-0.34852-1.0689-0.09242-0.10213-0.32888-0.0967-0.43553 0.01-0.04736 0.0474-0.08467 0.14111-0.08467 0.21277 0 0.13611 0.24901 1.0396 0.8281 3.0046 0.64777 2.198 0.85842 2.8537 0.93483 2.9095 0.11327 0.0828 0.3156 0.0646 0.42509-0.0382zm-7.3124-0.5619c0.05353-0.057 0.09734-0.14996 0.09734-0.20661 0-0.0566-0.09598-0.31959-0.2133-0.58431-0.28406-0.641-0.94263-2.1953-1.0649-2.5133-0.09814-0.25523-0.25252-0.4445-0.36256-0.4445-0.1234 0-0.27094 0.10016-0.31922 0.21669-0.05825 0.14064-0.04127 0.18786 0.66038 1.8365 0.7339 1.7244 0.77516 1.7992 0.9927 1.7992 0.06435 0 0.15378-0.0442 0.20958-0.10361zm19.263-2.3423c0.1061-0.0859 0.28835-0.76461 1.2756-4.7504 0.48405-1.9542 0.58415-2.4096 0.5474-2.4903-0.0247-0.0543-0.0366-0.11227-0.0264-0.12882 0.0102-0.0166-0.0134-0.0329-0.0524-0.0364-0.039-3e-3 -0.11903-0.0185-0.17776-0.0333-0.14303-0.0362-0.32236 0.10679-0.3596 0.28663-0.0572 0.27628-1.1679 4.7408-1.4367 5.7751-0.15239 0.5863-0.27708 1.1113-0.27708 1.1668 0 0.24014 0.31096 0.36948 0.50688 0.21083zm-9.7731-0.774c0.16689-0.0893 0.16838-0.20138 0.0174-1.3196-0.22144-1.6406-0.42876-3.2336-0.59373-4.5622-0.0824-0.66357-0.16003-1.2695-0.17252-1.3464-0.0308-0.18948-0.15505-0.30456-0.32893-0.30456-0.19742 0-0.30461 0.12822-0.29554 0.35354 9e-3 0.233 0.74792 5.9778 0.88714 6.9005 0.0418 0.27697 0.25789 0.40086 0.48614 0.2787zm-11.704-2.307c0.14487-0.14488 0.13765-0.18043-0.27899-1.3734-0.50816-1.455-0.68547-1.9975-1.1042-3.3784-0.15748-0.51933-0.31986-0.9813-0.36085-1.0266-0.10393-0.11485-0.32994-0.10828-0.44439 0.0129-0.07185 0.0761-0.08522 0.12934-0.06643 0.26459 0.06144 0.44214 1.4775 4.7844 1.7622 5.4038 0.09888 0.21507 0.32928 0.2605 0.49265 0.0971zm7.2731-1.4573c0.23452-0.0892 0.23051-0.12069-0.27091-2.1333-0.62024-2.4896-1.0127-4.2184-1.486-6.5458-0.09706-0.47731-0.19456-0.89017-0.21667-0.91747-0.07587-0.0937-0.2716-0.13633-0.37925-0.0827-0.22534 0.11232-0.22496 0.18121 0.0071 1.3237 0.36744 1.8087 0.919 4.2353 1.4227 6.2593 0.42177 1.6948 0.49838 1.9597 0.59074 2.0426 0.11795 0.10586 0.17202 0.1146 0.33224 0.0537zm19.335-0.11346c0.0428-0.0387 0.15252-0.31016 0.24391-0.60325 0.29753-0.95421 1.0532-3.6163 1.4732-5.1896 0.0932-0.34925 0.23224-0.86912 0.30893-1.1553l0.13944-0.52026-0.0853-0.11474c-0.10743-0.14451-0.33872-0.17621-0.46652-0.0639-0.0646 0.0567-0.17546 0.41136-0.43411 1.3885-0.19105 0.72179-0.38312 1.4362-0.42684 1.5875-0.0437 0.15135-0.20526 0.72285-0.359 1.27-0.15374 0.54716-0.42121 1.4733-0.59439 2.058-0.17317 0.58475-0.31486 1.0918-0.31486 1.1267 0 0.035 0.0395 0.11373 0.0877 0.17507 0.1031 0.13108 0.30684 0.15069 0.42785 0.0412zm-7.503-0.81627c0.0453-0.0453 0.093-0.14528 0.10607-0.22225 0.0282-0.16627 0.45503-3.6085 0.55272-4.458 0.24603-2.1392 0.40421-3.592 0.42809-3.9317 0.0264-0.37492 0.023-0.39771-0.0707-0.48508-0.18301-0.1705-0.47208-0.0757-0.52372 0.17183-0.011 0.053-0.0989 0.82975-0.19512 1.7262-0.16486 1.5352-0.50511 4.4075-0.73436 6.1994-0.0642 0.50175-0.0892 0.8372-0.0668 0.89617 0.0723 0.19026 0.3583 0.24897 0.50383 0.10344zm12.456-1.8968c0.0729-0.0857 0.45809-1.1784 0.45809-1.2996 0-0.24119-0.36989-0.3665-0.53744-0.18208-0.10722 0.11801-0.48331 1.238-0.44864 1.3361 0.0525 0.14834 0.15273 0.21969 0.30875 0.21969 0.0965 0 0.18029-0.0283 0.21924-0.0741zm-7.5275-2.9953c0.0791-0.0791 0.0724-0.0562 0.27704-0.95225 0.61363-2.687 1.4433-6.5938 1.4433-6.7964 0-0.2327-0.36845-0.36615-0.52705-0.1909-0.041 0.0453-0.11021 0.25007-0.15384 0.45509-0.0436 0.20501-0.18566 0.87757-0.31564 1.4946-0.35045 1.6636-0.50452 2.3709-0.85301 3.9158-0.42733 1.8944-0.42679 1.8912-0.33747 2.0275 0.0575 0.0877 0.10619 0.11035 0.23763 0.11035 0.0909 0 0.19402-0.0287 0.22908-0.0637zm-13.564-0.99429c0.0403-0.20795-0.0119-0.83981-0.22379-2.7096-0.13062-1.1525-0.29573-2.6575-0.36691-3.3443-0.07118-0.68686-0.14586-1.4069-0.16596-1.6002-0.04081-0.39234-0.11367-0.51652-0.30303-0.51652-0.17249 0-0.24745 0.0396-0.31034 0.16388-0.0621 0.12274-0.07521-0.0304 0.29408 3.4344 0.10547 0.98955 0.228 2.104 0.2723 2.4765 0.0443 0.37254 0.11334 0.96917 0.15343 1.3258 0.08854 0.78787 0.1283 0.86469 0.43777 0.84589 0.13766-8e-3 0.20394-0.032 0.21245-0.0759zm-8.9075-0.23121c0.05715-0.0572 0.10391-0.13344 0.10391-0.16954s-0.06561-0.31795-0.1458-0.62634c-0.08019-0.30839-0.27154-1.0846-0.42522-1.7249-0.30213-1.2588-0.32626-1.3123-0.59128-1.3123-0.17317 0-0.28563 0.12005-0.28511 0.30435 2.11e-4 0.0771 0.18372 0.8831 0.40778 1.7912 0.35423 1.4355 0.42134 1.6634 0.5142 1.7462 0.13902 0.12398 0.29202 0.12083 0.42151-9e-3zm27.501-1.8373c0.0701-0.0684 0.45784-1.5022 0.45784-1.6928 0-0.17819-0.12136-0.30299-0.29464-0.30299-0.2632 0-0.24776-0.0355-0.63383 1.4558-0.072 0.27835-0.0777 0.35223-0.0341 0.44327 0.10084 0.2103 0.34123 0.25637 0.50471 0.0967zm-8.7399-2.6414c0.0791-0.0856 0.1014-0.23947 0.21918-1.5134 0.0721-0.77999 0.13106-1.4991 0.13099-1.5981-1.7e-4 -0.22505-0.1108-0.34925-0.31108-0.34925-0.27818 0-0.28057 9e-3 -0.43735 1.7042-0.0781 0.84384-0.13209 1.5758-0.12008 1.6266 0.055 0.23247 0.35421 0.30749 0.51834 0.12996zm-15.544-0.263c0.05715-0.0572 0.10356-0.13811 0.10312-0.17992-4.32e-4 -0.0418-0.0647-0.44332-0.14281-0.89225-0.15612-0.89724-0.19399-0.98292-0.43446-0.98292-0.1826 0-0.31094 0.12626-0.31094 0.3059 0 0.0751 0.05925 0.47993 0.13167 0.89959 0.1016 0.58877 0.15162 0.78476 0.21905 0.85826 0.11679 0.12732 0.3021 0.12362 0.43438-9e-3zm10.29-0.67257 0.11527-0.0992 0.0194-1.4354c0.0165-1.2247 0.01-1.4581-0.0455-1.59-0.0733-0.17464-0.23468-0.23822-0.42294-0.16664-0.18933 0.072-0.20649 0.23056-0.1921 1.7748l0.0132 1.4113 0.11877 0.10212c0.14909 0.12819 0.24751 0.12893 0.39393 3e-3z" fill="#333"/>
   </g>
  </g>
 </g>
</svg>
